<svg xmlns="http://www.w3.org/2000/svg" viewBox="0 0 650 650" overflow="hidden" preserveAspectRatio="xMidYMid meet" id="eaf-12363-0"><defs><clipPath id="eaf-12363-1"><rect x="0" y="0" width="650" height="650"></rect></clipPath><style>
<![CDATA[
#eaf-12363-0 *{offset-rotate:0deg}
]]>
</style></defs><g clip-path="url('#eaf-12363-1')" style="isolation: isolate;"><g><path fill="#aaaaaa" d="m651 325.1c0 81.6 0 163.1 0 244.7c0 37.4 -28.2 71.6 -65 78.6c-5.5 1 -11.1 1.6 -16.6 1.6c-162.6 0 -325.2 0 -487.7 0c-39.9 0.0001 -74.7 -30.5999 -79.9 -70.2c-0.5 -3.5 -0.8 -7 -0.8 -10.6c0 -163 0 -326 0 -488.9c0 -37.4 28.2 -71.6 65 -78.6c5.4 -1 11.1 -1.6 16.6 -1.6c162.7 -0.1 325.4 -0.1 488.1 -0.1c37.4 0 71.6 28.2 78.6 65c1 5.4 1.6 11.1 1.6 16.6c0.1 81.2 0.1 162.3 0.1 243.5l0 0l0 0z"></path><g><path fill="#fefadf" d="m201.6 79.2l246.8 0c67.6 0 122.4 54.8 122.4 122.4l0 246.8c0 67.6 -54.8 122.4 -122.4 122.4l-246.8 0c-67.6 -0.0001 -122.4 -54.8 -122.4 -122.4001l0 -246.8c0 -67.6 54.8 -122.4 122.4 -122.4z"></path><path fill="#000000" d="m448.4 582.8l-246.8 0c-74.1 0 -134.4 -60.3 -134.4 -134.4l0 -246.8c0 -74.1 60.3 -134.4 134.4 -134.4l246.8 0c74.1 0 134.4 60.3 134.4 134.4l0 246.8c-0.0001 74.1 -60.3 134.4 -134.4001 134.4zm-246.8 -491.6c-60.9 0 -110.4 49.5 -110.4 110.4l0 246.8c0 60.9 49.5 110.4 110.4 110.4l246.8 0c60.9 0 110.4 -49.5 110.4 -110.4l0 -246.8c0 -60.9 -49.5 -110.4 -110.4 -110.4l-246.8 0z"></path></g><g><path fill="#000000" d="m398.7 250.9c-61.9 -61.9 -142.8 -98 -229.7 -102.8c-10.9 -0.6 -20 8.1 -20 19l0 31.4c0 10.1 7.9 18.4 18 19c69 4.3 133.3 33.2 182.6 82.4c49.3 49.3 78.2 113.6 82.4 182.6c0.6 10.1 8.9 18 19 18l31.4 0c10.9 0 19.6 -9.1 19 -20c-4.7 -86.8 -40.8 -167.7 -102.7 -229.6z"></path><path fill="#000000" d="m148.4 286l0 29.4c0 10.2 7.7 18.9 17.8 20c77.3 8.3 139 69.9 147.3 147.3c1.1 10.2 9.7 17.8 20 17.8l29.4 0c11.8 0 21.1 -10.2 20 -22c-10.5 -112.3 -100.2 -202 -212.6 -212.5c-11.8 -1.1 -21.9 8.2 -21.9 20z"></path><ellipse fill="#000000" rx="49.7" ry="49.7" transform="translate(197.7 452.7)"></ellipse></g></g></g></svg>